<svg xmlns="http://www.w3.org/2000/svg" viewBox="0 0 400 400" width="400" height="400">
  <!-- Sky background -->
  <defs>
    <linearGradient id="skyGradient" x1="0%" y1="0%" x2="0%" y2="100%">
      <stop offset="0%" style="stop-color:#87CEEB;stop-opacity:1" />
      <stop offset="100%" style="stop-color:#4169E1;stop-opacity:1" />
    </linearGradient>
  </defs>
  
  <!-- Background -->
  <rect width="400" height="400" fill="url(#skyGradient)"/>
  
  <!-- City silhouette -->
  <rect x="0" y="320" width="400" height="80" fill="#2C3E50"/>
  <rect x="50" y="280" width="30" height="40" fill="#34495E"/>
  <rect x="100" y="290" width="25" height="30" fill="#34495E"/>
  <rect x="150" y="270" width="35" height="50" fill="#34495E"/>
  <rect x="200" y="285" width="20" height="35" fill="#34495E"/>
  <rect x="250" y="275" width="30" height="45" fill="#34495E"/>
  <rect x="300" y="290" width="25" height="30" fill="#34495E"/>
  <rect x="350" y="280" width="30" height="40" fill="#34495E"/>
  
  <!-- Superhero silhouette -->
  <g transform="translate(200,200)">
    <!-- Cape -->
    <path d="M -15 -20 Q -25 -10 -30 20 L -25 60 Q -20 80 -10 90 L 0 60 L 10 90 Q 20 80 25 60 L 30 20 Q 25 -10 15 -20" fill="#DC143C"/>
    
    <!-- Body -->
    <ellipse cx="0" cy="20" rx="15" ry="35" fill="#4169E1"/>
    
    <!-- Head -->
    <circle cx="0" cy="-15" r="12" fill="#FFE4C4"/>
    
    <!-- Arms -->
    <ellipse cx="-20" cy="10" rx="8" ry="20" fill="#4169E1" transform="rotate(-20)"/>
    <ellipse cx="20" cy="10" rx="8" ry="20" fill="#4169E1" transform="rotate(20)"/>
    
    <!-- Hands -->
    <circle cx="-25" cy="25" r="4" fill="#FFE4C4"/>
    <circle cx="25" cy="25" r="4" fill="#FFE4C4"/>
    
    <!-- Legs -->
    <ellipse cx="-8" cy="50" rx="6" ry="25" fill="#4169E1"/>
    <ellipse cx="8" cy="50" rx="6" ry="25" fill="#4169E1"/>
    
    <!-- Boots -->
    <ellipse cx="-8" cy="72" rx="7" ry="8" fill="#8B0000"/>
    <ellipse cx="8" cy="72" rx="7" ry="8" fill="#8B0000"/>
    
    <!-- Belt -->
    <rect x="-12" y="8" width="24" height="4" fill="#FFD700"/>
    
    <!-- Logo/Emblem -->
    <circle cx="0" cy="5" r="6" fill="#FFD700"/>
    <text x="0" y="9" text-anchor="middle" fill="#4169E1" font-family="Arial" font-size="8" font-weight="bold">S</text>
  </g>
  
  <!-- Sun rays -->
  <g stroke="#FFD700" stroke-width="2" opacity="0.7">
    <line x1="50" y1="50" x2="70" y2="30"/>
    <line x1="80" y1="40" x2="100" y2="20"/>
    <line x1="120" y1="45" x2="140" y2="25"/>
    <line x1="350" y1="60" x2="370" y2="40"/>
    <line x1="320" y1="50" x2="340" y2="30"/>
    <line x1="290" y1="55" x2="310" y2="35"/>
  </g>
</svg>
